<svg xmlns="http://www.w3.org/2000/svg" width="50.001" height="55" viewBox="0 0 50.001 55">
  <path id="Op_component_1" data-name="Op component 1" d="M1140.269,2097.476h0c-1.563,0-2.445-.822-2.95-2.742a35.777,35.777,0,0,1-.552-7.83,51.272,51.272,0,0,0-.944-11.5.807.807,0,0,0-.976-.6.818.818,0,0,0-.592.988,50.035,50.035,0,0,1,.9,11.123,36.631,36.631,0,0,0,.606,8.24,6.6,6.6,0,0,0,1.061,2.323h-33.632a6.6,6.6,0,0,0,1.061-2.323,36.6,36.6,0,0,0,.606-8.24c.029-4.769.061-10.174,1.989-14.311,2.17-4.656,6.475-6.92,13.16-6.92a17.033,17.033,0,0,1,8.929,2.076,10.929,10.929,0,0,1,4.386,5.189.8.8,0,0,0,1.063.419.821.821,0,0,0,.415-1.076,12.672,12.672,0,0,0-5.029-5.93,15.212,15.212,0,0,0-4.971-1.87,4.8,4.8,0,0,0-9.585,0,15.345,15.345,0,0,0-4.773,1.75,12.542,12.542,0,0,0-5.055,5.666c-2.08,4.463-2.114,10.059-2.143,15a35.732,35.732,0,0,1-.552,7.83c-.505,1.921-1.387,2.741-2.95,2.742h0a4.79,4.79,0,0,0,0,9.579h5.109a.817.817,0,0,0,0-1.634h-5.109a3.156,3.156,0,0,1,0-6.311h40.538a3.156,3.156,0,0,1,0,6.311h-32.2a.817.817,0,0,0,0,1.634h3.313a8.647,8.647,0,0,0,17.236,0h11.651a4.79,4.79,0,0,0,0-9.579ZM1120,2061.633a3.21,3.21,0,0,1,3.132,2.6,27.32,27.32,0,0,0-6.263,0A3.208,3.208,0,0,1,1120,2061.633Zm0,51.733a7.083,7.083,0,0,1-7-6.311H1127A7.083,7.083,0,0,1,1120,2113.366Z" transform="translate(-1094.999 -2060)" fill="#8b0909"/>
</svg>
