<svg xmlns="http://www.w3.org/2000/svg" width="45" height="48.577" viewBox="0 0 45 48.577">
  <g id="comment-blog" transform="translate(0 0.013)">
    <path id="Path_1784" data-name="Path 1784" d="M18.355,4.966c4.658,0,11.961.039,16.618.039a6.8,6.8,0,0,1,1.539.158,6.518,6.518,0,0,1,1.421.434,10.6,10.6,0,0,1,1.3.711A7.91,7.91,0,0,1,41.329,8.4a6.87,6.87,0,0,1,.711,1.3,7.48,7.48,0,0,1,.434,1.421,9.683,9.683,0,0,1,.158,1.539V28.1a6.8,6.8,0,0,1-.158,1.539,5.921,5.921,0,0,1-.434,1.421,10.6,10.6,0,0,1-.711,1.3,8.574,8.574,0,0,1-.947,1.145h0a8.3,8.3,0,0,1-1.184.947A6.982,6.982,0,0,1,36.553,35.6a9.225,9.225,0,0,1-1.539.158H29.132a1.093,1.093,0,0,0-.513.118,1.545,1.545,0,0,0-.395.316h0c-.474.592-.947,1.184-1.461,1.776a20.867,20.867,0,0,1-1.618,1.618c-.553.513-1.145.987-1.737,1.461s-1.224.908-1.855,1.342c-.592.395-1.263.789-1.934,1.145s-1.342.671-2.013.987a.252.252,0,0,1-.237,0,.318.318,0,0,1-.118-.355c.118-.237.237-.434.355-.671a3.5,3.5,0,0,0,.316-.671h0a13.636,13.636,0,0,0,.553-1.342c.2-.474.355-.947.513-1.421a14.131,14.131,0,0,0,.434-1.382c.158-.474.276-.947.395-1.421a1.679,1.679,0,0,0,.079-.434,1.136,1.136,0,0,0-.355-.829h0a1.231,1.231,0,0,0-.829-.355H12a6.8,6.8,0,0,1-1.539-.158,7.948,7.948,0,0,1-1.382-.395h0a5.562,5.562,0,0,1-1.263-.671,9.568,9.568,0,0,1-1.224-.987h0a8.574,8.574,0,0,1-.947-1.145,6.87,6.87,0,0,1-.711-1.3A7.48,7.48,0,0,1,4.5,29.558a9.682,9.682,0,0,1-.158-1.539v-9.75a1.226,1.226,0,0,0-2.368-.474V28.019a10.792,10.792,0,0,0,.2,1.974,9.589,9.589,0,0,0,1.461,3.553,10.148,10.148,0,0,0,2.8,2.8,8.745,8.745,0,0,0,1.7.908h0a10.036,10.036,0,0,0,1.855.553,10.792,10.792,0,0,0,1.974.2h4.934a.24.24,0,0,1,.158.355h0c-.079.316-.2.592-.276.908h0l-.474,1.3c-.158.395-.355.829-.513,1.224v.079a8.285,8.285,0,0,1-.592,1.184,9.924,9.924,0,0,1-.789,1.145c-.276.355-.632.75-.987,1.145h0c-.355.395-.75.75-1.184,1.145a1.364,1.364,0,0,0-.395.829,1.1,1.1,0,0,0,.316.829,1.656,1.656,0,0,0,.553.355.872.872,0,0,0,.632,0c.868-.237,1.737-.513,2.605-.789a26.141,26.141,0,0,0,2.447-.947c.789-.355,1.579-.711,2.329-1.105a24.3,24.3,0,0,0,2.171-1.3h0A18.721,18.721,0,0,0,24.908,42.9c.671-.513,1.263-1.066,1.895-1.618h0c.513-.474.987-.987,1.461-1.5s.947-1.066,1.382-1.618a.239.239,0,0,1,.237-.118h5.132a10.793,10.793,0,0,0,1.974-.2,10.036,10.036,0,0,0,1.855-.553h0a10.061,10.061,0,0,0,1.7-.908,10.148,10.148,0,0,0,2.8-2.8A9.589,9.589,0,0,0,44.8,30.032a10.792,10.792,0,0,0,.2-1.974V12.584a10.792,10.792,0,0,0-.2-1.974,9.589,9.589,0,0,0-1.461-3.553,10.148,10.148,0,0,0-2.8-2.8,8.746,8.746,0,0,0-1.7-.908h0a10.036,10.036,0,0,0-1.855-.553,10.792,10.792,0,0,0-1.974-.2c-4.855,0-12.316-.039-17.171-.039a1.237,1.237,0,0,0,.513,2.408Zm-8.763,10.5,2.25.711c.75.237,1.5.513,2.25.75,1.776.553,2.763.908,2.961.947s.079-.75-.355-2.487L15.276,9.979l-.118-.118L9.592,15.466Zm3.513-7.7L5.882.19a.605.605,0,0,0-.75-.118L.158,4.887A.529.529,0,0,0,.2,5.676l7.342,7.7,5.566-5.605Zm3.513,21a1.125,1.125,0,0,1-.039-2.25l9.868-.158L28.7,26.2a1.108,1.108,0,0,1,.158,2.211l-2.25.158s-9,.158-9.987.2Zm3.513-7.026a1.105,1.105,0,1,1,0-2.211H34.184a1.105,1.105,0,0,1,0,2.211Zm4.974-6.671A1.1,1.1,0,0,1,24,13.966a1.13,1.13,0,0,1,1.105-1.105h9.079a1.105,1.105,0,0,1,0,2.211Z" transform="translate(0 0)" fill="#8b0909"/>
  </g>
</svg>
