<svg xmlns="http://www.w3.org/2000/svg" width="53.02" height="55.162" viewBox="0 0 53.02 55.162">
  <path id="Op_component_1" data-name="Op component 1" d="M1434.68,1872.859a4.771,4.771,0,0,0-4.646-3.859.965.965,0,0,0,0,1.93,2.9,2.9,0,0,1,0,5.789.965.965,0,0,0,0,1.93,4.772,4.772,0,0,0,4.646-3.86H1446.1v8.684H1396.9v-8.684h15.121a.965.965,0,0,0,0-1.93H1410.3a2.844,2.844,0,0,1,2.67-1.929,2.9,2.9,0,0,1,0,5.789.965.965,0,0,0,0,1.93,4.825,4.825,0,1,0-4.646-5.79h-10.164c-2.021,0-3.156-.141-3.156,3.609v8.935s.073,24.065,0,34.19c-.031,4.308.125,4.337,5.156,4.438,10,.2,31.948.151,42.269-.032,5.277-.094,5.7.8,5.575-6.062-.2-10.864,0-32.534,0-32.534s.037-3.445,0-6.724c-.071-6.273-.077-5.821-6.566-5.821Zm11.423,49.211H1396.9V1885.4H1446.1Z" transform="translate(-1394.997 -1869)" fill="#8b0909"/>
</svg>
