<svg xmlns="http://www.w3.org/2000/svg" width="57" height="55" viewBox="0 0 57 55">
  <path id="Op_component_1" data-name="Op component 1" d="M1433.857,2073.806a20.361,20.361,0,1,0-40.714-.052v.052a8.737,8.737,0,0,0-8.143,8.769v1.038a8.73,8.73,0,0,0,8.652,8.821h.458l3.613,5.863a13.555,13.555,0,0,0,11.655,6.589h.712a4.152,4.152,0,1,0,0-2.075h-.712a11.564,11.564,0,0,1-9.924-5.656l-2.952-4.721h.713a2.062,2.062,0,0,0,2.036-2.075V2075.83a2.062,2.062,0,0,0-2.036-2.075h-2.036a18.325,18.325,0,1,1,36.643,0h-2.036a2.062,2.062,0,0,0-2.036,2.075v14.529a2.062,2.062,0,0,0,2.036,2.075h3.563a8.73,8.73,0,0,0,8.652-8.821v-1.038A8.737,8.737,0,0,0,1433.857,2073.806Zm-19.848,27.967a2.076,2.076,0,1,1-2.036,2.075A2.062,2.062,0,0,1,1414.009,2101.773Zm-16.795-25.944v14.529h-3.562a6.669,6.669,0,0,1-6.616-6.746v-1.038a6.668,6.668,0,0,1,6.616-6.745Zm42.75,7.783a6.669,6.669,0,0,1-6.616,6.746h-3.562V2075.83h3.563a6.668,6.668,0,0,1,6.616,6.745Z" transform="translate(-1385 -2053)" fill="#8b0909"/>
</svg>
