<svg id="Group_1853" data-name="Group 1853" xmlns="http://www.w3.org/2000/svg" width="99.364" height="119.999" viewBox="0 0 99.364 119.999">
  <path id="Path_1751" data-name="Path 1751" d="M1278.961,1044.275c-4.827-9.216,2.127,8.318-4.152,8.811-7.141.123-36-.054-36-.054s-12.8-.774-12.8,12.8v73.627a13.7,13.7,0,0,0,8.5,11.45c.611.277,3.129,2.186-5.429,10.687,15.575-4.906,11.34-10.04,25.689-10.04,21.055,0,58.045-.646,58.045-.646s12.836-.923,12.558-12,0-72.95,0-72.95.554-13.122-12.558-13.214-22.767.137-22.767.137S1283.788,1053.49,1278.961,1044.275Z" transform="translate(-1226 -1041.602)" fill="#fff"/>
  <path id="Path_1752" data-name="Path 1752" d="M35.766,12.14H15.977V40.969c5.5-3.545,15.927-8.073,31.13-5.488a32.753,32.753,0,0,0-18.553-2.439V22.384h6.163q8.329,0,12.967,4.585c3.057,3.049,4.6,7.236,4.6,12.561q0,8.463-4.65,13.366c-3.106,3.285-7.39,4.911-12.837,4.911H28.554V49.538A25.7,25.7,0,0,0,45.612,39.62S32.034,50.532,15.977,48.364c.041,4.5,0,5.077,0,19.662H35.766q13.537,0,21.65-7.8t8.13-20.854Q65.546,12.132,35.766,12.14Z" transform="translate(10.055 20.861)" fill="#8b0909"/>
  <path id="Path_1753" data-name="Path 1753" d="M30.632.953C30.519-.251,5.991-1.9,0,7.175,0,10.03,25.15,7.576,30.632.953Z" transform="matrix(0.996, -0.087, 0.087, 0.996, 25.726, 59.284)" fill="#8b0909"/>
</svg>
