<svg xmlns="http://www.w3.org/2000/svg" width="329" height="64.536" viewBox="0 0 329 64.536">
  <g id="Group_9" data-name="Group 9" transform="translate(-100 -4.59)">
    <g id="Text" transform="translate(-386 -679)">
      <text id="Dietitian_Your_Way_" data-name="Dietitian Your Way " transform="translate(551 697)" font-size="24" font-family="Oswald-SemiBold, Oswald" font-weight="600"><tspan x="0" y="29">Dietitian Your Way </tspan></text>
      <path id="Path_16" data-name="Path 16" d="M1254.483,1043.039c-2.6-4.956,1.144,4.474-2.233,4.738-3.841.066-19.363-.029-19.363-.029s-6.886-.416-6.886,6.887v39.6a7.367,7.367,0,0,0,4.569,6.158c.329.149,1.683,1.176-2.92,5.748,8.376-2.639,6.1-5.4,13.816-5.4,11.323,0,31.217-.348,31.217-.348s6.9-.5,6.754-6.456,0-39.233,0-39.233.3-7.057-6.754-7.107-12.245.074-12.245.074S1257.079,1048,1254.483,1043.039Z" transform="translate(-740 -358.012)" fill="#8b0909"/>
    </g>
    <path id="Path_17" data-name="Path 17" d="M26.619,12.14H15.977v15.5c2.96-1.906,8.566-4.342,16.742-2.951a17.615,17.615,0,0,0-9.978-1.312V17.649h3.314a9.5,9.5,0,0,1,6.974,2.466A9.12,9.12,0,0,1,35.5,26.871,10.006,10.006,0,0,1,33,34.059,9.044,9.044,0,0,1,26.1,36.7H22.741V32.253a13.821,13.821,0,0,0,9.174-5.334s-7.3,5.869-15.938,4.7c.022,2.42,0,2.73,0,10.574H26.619Q33.9,42.2,38.263,38t4.372-11.215Q42.636,12.136,26.619,12.14Z" transform="translate(98.023 10.198)" fill="#fff"/>
    <path id="Path_18" data-name="Path 18" d="M130.4,35.314c-.061-.648-13.252-1.533-16.474,3.346C113.922,40.2,127.448,38.876,130.4,35.314Z" transform="matrix(0.996, -0.087, 0.087, 0.996, -2.686, 11.733)" fill="#fff"/>
  </g>
</svg>
