<svg xmlns="http://www.w3.org/2000/svg" width="61.999" height="62.386" viewBox="0 0 61.999 62.386">
  <g id="hierarchy-management-task" transform="translate(0 0)">
    <path id="Path_1785" data-name="Path 1785" d="M24.96,9.215a1.221,1.221,0,0,0,.772-.071L25.27,6.509a3.509,3.509,0,0,1,.792-1.554,2.455,2.455,0,0,1,1.376-.746c.726-.051.944.477,1.676.944a11.68,11.68,0,0,0,6.814,1.924l-.564,2.28a1.078,1.078,0,0,0,.614.061c.437-.036.706,0,.772.142.1.2.01.635-.294,1.33l-1.493,2.457a11.667,11.667,0,0,1-1.828,2.493A3.7,3.7,0,0,1,30.474,16.9a3.625,3.625,0,0,1-2.513-1.01,11.3,11.3,0,0,1-1.777-2.331l-1.325-2.112h0l-.005-.01a3.077,3.077,0,0,1-.625-1.513.749.749,0,0,1,.056-.335.508.508,0,0,1,.173-.2,1.031,1.031,0,0,1,.5-.168ZM53.109,58.3l1.1,3.244.553-1.924-.274-.3a.458.458,0,0,1-.081-.472c.147-.289.452-.239.736-.239.3,0,.665-.056.762.315a.506.506,0,0,1-.1.391l-.274.3.553,1.924,1-3.244c.721.65,2.854.777,3.651,1.224a2.165,2.165,0,0,1,.66.559c.411.543,1.158,2.209-.1,2.305H48.905c-1.264-.1-.513-1.762-.1-2.305a2.1,2.1,0,0,1,.66-.559c.792-.437,2.925-.569,3.646-1.219Zm-48.2,0,1.1,3.244.553-1.924-.274-.3a.458.458,0,0,1-.081-.472c.147-.289.452-.239.736-.239.3,0,.665-.056.762.315a.506.506,0,0,1-.1.391l-.274.3.553,1.924,1-3.244c.721.65,2.854.777,3.651,1.224a2.165,2.165,0,0,1,.66.559c.376.5,1.137,2.209-.1,2.305H.7c-1.264-.1-.513-1.762-.1-2.305a2.1,2.1,0,0,1,.66-.559c.792-.437,2.925-.569,3.646-1.219Zm-.564-4.641a.63.63,0,0,0,.376.005l-.234-1.239a1.635,1.635,0,0,1,.366-.721,1.136,1.136,0,0,1,.64-.345c.34-.025.442.223.777.437a5.435,5.435,0,0,0,3.168.894l-.249,1.061a.788.788,0,0,0,.289-.005c.208-.015.33.005.371.081.051.1.01.31-.137.64l-.7,1.142a5.5,5.5,0,0,1-.853,1.163,1.754,1.754,0,0,1-1.254.5A1.684,1.684,0,0,1,5.722,56.8,4.983,4.983,0,0,1,4.894,55.7l-.614-.98-.005-.005A1.449,1.449,0,0,1,3.98,54a.412.412,0,0,1,.03-.168.3.3,0,0,1,.091-.107.587.587,0,0,1,.239-.066Zm5.519-.218.041-1.6a2.379,2.379,0,0,0-.6-1.513A3.512,3.512,0,0,0,5.7,49.611a2.6,2.6,0,0,0-.559.274A2.362,2.362,0,0,0,4.1,51.216a2.662,2.662,0,0,0-.076.4,15.659,15.659,0,0,0,.03,1.767.672.672,0,0,0-.147.076A.6.6,0,0,0,3.7,53.7a.656.656,0,0,0-.061.32,1.776,1.776,0,0,0,.35.894l.614.98a5.524,5.524,0,0,0,.889,1.158,2.054,2.054,0,0,0,1.417.569A2.079,2.079,0,0,0,8.4,57.034,5.927,5.927,0,0,0,9.312,55.8l.7-1.158c.005-.005.005-.015.01-.02h0c.193-.437.234-.736.132-.934a.477.477,0,0,0-.294-.239ZM29.007,57.08l1.1,3.244.553-1.924-.274-.3a.458.458,0,0,1-.081-.472c.147-.289.452-.239.736-.239.3,0,.665-.056.762.315a.506.506,0,0,1-.1.391l-.274.3.553,1.924,1-3.244c.721.65,2.854.777,3.651,1.224a2.165,2.165,0,0,1,.66.559c.411.543,1.158,2.209-.1,2.305H24.8c-1.142-.086-.411-1.894-.1-2.305a2.1,2.1,0,0,1,.66-.559c.792-.437,2.925-.569,3.646-1.219Zm-.564-4.646a.63.63,0,0,0,.376.005L28.586,51.2a1.635,1.635,0,0,1,.366-.721,1.136,1.136,0,0,1,.64-.345c.34-.025.442.223.777.437a5.435,5.435,0,0,0,3.168.894l-.249,1.061a.788.788,0,0,0,.289-.005c.208-.015.33.005.371.081.051.1.01.31-.137.64l-.7,1.142a5.5,5.5,0,0,1-.853,1.163,1.754,1.754,0,0,1-1.254.5,1.684,1.684,0,0,1-1.183-.477A4.983,4.983,0,0,1,29,54.475l-.614-.98-.005-.005a1.449,1.449,0,0,1-.294-.716.412.412,0,0,1,.03-.168A.3.3,0,0,1,28.2,52.5a.813.813,0,0,1,.239-.066Zm5.519-.213.041-1.6a2.379,2.379,0,0,0-.6-1.513,3.512,3.512,0,0,0-3.595-.716,2.6,2.6,0,0,0-.559.274,2.362,2.362,0,0,0-1.041,1.33,2.663,2.663,0,0,0-.076.4,15.659,15.659,0,0,0,.03,1.767.671.671,0,0,0-.147.076.561.561,0,0,0-.208.244.656.656,0,0,0-.061.32,1.73,1.73,0,0,0,.35.894l.614.98a5.523,5.523,0,0,0,.889,1.158,2.054,2.054,0,0,0,1.417.569,2.079,2.079,0,0,0,1.488-.589,6.029,6.029,0,0,0,.914-1.234l.7-1.158c.005-.005.005-.015.01-.02h0c.193-.437.234-.736.132-.934a.469.469,0,0,0-.294-.244Zm18.583,1.442a.63.63,0,0,0,.376.005l-.234-1.239a1.635,1.635,0,0,1,.366-.721,1.136,1.136,0,0,1,.64-.345c.34-.025.442.223.777.437a5.435,5.435,0,0,0,3.168.894l-.249,1.061a.788.788,0,0,0,.289-.005c.208-.015.33.005.371.081.051.1.01.31-.137.64l-.7,1.142a5.5,5.5,0,0,1-.853,1.163,1.754,1.754,0,0,1-1.254.5,1.684,1.684,0,0,1-1.183-.477A4.983,4.983,0,0,1,53.1,55.7l-.614-.98-.005-.005A1.449,1.449,0,0,1,52.185,54a.412.412,0,0,1,.03-.168.3.3,0,0,1,.091-.107.563.563,0,0,1,.239-.066Zm5.519-.218.041-1.6a2.379,2.379,0,0,0-.6-1.513,3.512,3.512,0,0,0-3.595-.716,2.6,2.6,0,0,0-.559.274,2.362,2.362,0,0,0-1.041,1.33,2.662,2.662,0,0,0-.076.4,15.658,15.658,0,0,0,.03,1.767.672.672,0,0,0-.147.076.619.619,0,0,0-.274.564,1.776,1.776,0,0,0,.35.894l.614.98a5.524,5.524,0,0,0,.889,1.158,2.054,2.054,0,0,0,1.417.569,2.079,2.079,0,0,0,1.488-.589,5.927,5.927,0,0,0,.914-1.239l.7-1.158c.005-.005.005-.015.01-.02h0c.193-.437.234-.736.132-.934a.455.455,0,0,0-.289-.239ZM26.179,19.152l2.376,6.981,1.193-4.143-.584-.64a.962.962,0,0,1-.173-1.01c.315-.63.975-.508,1.584-.508.64,0,1.437-.122,1.635.68a1.065,1.065,0,0,1-.2.838l-.584.64,1.193,4.143,2.148-6.981c1.549,1.4,6.144,1.676,7.85,2.63a4.466,4.466,0,0,1,1.422,1.2A5.8,5.8,0,0,1,45.1,26.1l.355,2.991a1.568,1.568,0,0,1-1.64,1.533H17.136a1.565,1.565,0,0,1-1.64-1.533l.355-2.991a5.8,5.8,0,0,1,1.061-3.118,4.412,4.412,0,0,1,1.422-1.2c1.706-.955,6.3-1.239,7.845-2.63Zm6.733,14.212v5.072H57.019v9.419h-3.3V41.741H32.912v4H29.3v-4H8.332v6.118h-3.3V38.441H29.3V33.369h3.615Zm3.93-24.732.081-3.4a5.174,5.174,0,0,0-1.3-3.255C33.815.03,30.439-.477,27.89.447a6.059,6.059,0,0,0-1.208.589,5.089,5.089,0,0,0-2.244,2.859,4.643,4.643,0,0,0-.162.858,32.679,32.679,0,0,0,.061,3.742,1.687,1.687,0,0,0-.345.173,1.324,1.324,0,0,0-.472.548,1.6,1.6,0,0,0-.137.711,3.844,3.844,0,0,0,.762,1.95l1.325,2.112a11.878,11.878,0,0,0,1.919,2.5,4.408,4.408,0,0,0,3.082,1.234,4.517,4.517,0,0,0,3.239-1.285,12.429,12.429,0,0,0,1.975-2.671L37.2,11.277a.159.159,0,0,0,.025-.051h0a2.535,2.535,0,0,0,.284-2.061,1.031,1.031,0,0,0-.665-.533Z" transform="translate(0)" fill="#8b0909"/>
  </g>
</svg>
