<svg xmlns="http://www.w3.org/2000/svg" width="37" height="57" viewBox="0 0 37 57">
  <path id="Forma_1" data-name="Forma 1" d="M507.385,1915.482v6.818h9.692a1.35,1.35,0,1,1,0,2.7H494.923a1.35,1.35,0,1,1,0-2.7h9.692v-6.818A17.768,17.768,0,0,1,488,1898a1.385,1.385,0,0,1,2.769,0,15.236,15.236,0,0,0,30.462,0,1.385,1.385,0,0,1,2.769,0A17.72,17.72,0,0,1,507.385,1915.482Zm9-36.357V1898a10.388,10.388,0,0,1-20.769,0v-18.875a10.388,10.388,0,0,1,20.769,0Zm-2.769,0a7.618,7.618,0,0,0-15.231,0V1898a7.618,7.618,0,0,0,15.231,0Z" transform="translate(-487.5 -1868.5)" fill="#8b0909" stroke="#fff" stroke-linejoin="round" stroke-width="1"/>
</svg>
