<svg xmlns="http://www.w3.org/2000/svg" width="53.998" height="53.999" viewBox="0 0 53.998 53.999">
  <path id="Op_component_1" data-name="Op component 1" d="M836.8,2108.035l-14.088-14.088a21.153,21.153,0,1,0-5.768,5.768l14.088,14.089a4.079,4.079,0,0,0,5.768-5.769Zm-31.63-6.527a19.335,19.335,0,1,1,19.335-19.335A19.357,19.357,0,0,1,805.174,2101.508Zm30.359,11.023a2.282,2.282,0,0,1-3.226,0l-13.721-13.721,3.225-3.225,13.721,13.721A2.279,2.279,0,0,1,835.533,2112.531Z" transform="translate(-784 -2061)" fill="#8b0909"/>
</svg>
