<svg xmlns="http://www.w3.org/2000/svg" width="28" height="28" viewBox="0 0 28 28">
  <path id="user-icon" d="M23.9,4.1A14,14,0,0,0,4.1,23.9,14,14,0,0,0,23.9,4.1ZM7.018,24.193a7.089,7.089,0,0,1,13.963,0,12.332,12.332,0,0,1-13.963,0Zm2.53-11.95A4.451,4.451,0,1,1,14,16.694a4.456,4.456,0,0,1-4.451-4.451ZM22.4,23.055a8.743,8.743,0,0,0-5.083-5.706,6.092,6.092,0,1,0-6.639,0A8.742,8.742,0,0,0,5.6,23.055a12.359,12.359,0,1,1,16.8,0Zm0,0" transform="translate(0.001)" fill="#8b0909" opacity="0.9"/>
</svg>
